G75*
%MOIN*%
%OFA0B0*%
%FSLAX25Y25*%
%IPPOS*%
%LPD*%
%AMOC8*
5,1,8,0,0,1.08239X$1,22.5*
%
%ADD10C,0.07800*%
%ADD11R,0.05950X0.05950*%
%ADD12C,0.05950*%
%ADD13OC8,0.06000*%
%ADD14C,0.06000*%
D10*
X0031800Y0021800D03*
X0031800Y0081800D03*
X0191800Y0081800D03*
X0191800Y0021800D03*
D11*
X0041800Y0021800D03*
D12*
X0051800Y0021800D03*
X0061800Y0021800D03*
X0071800Y0021800D03*
X0081800Y0021800D03*
X0091800Y0021800D03*
X0101800Y0021800D03*
X0111800Y0021800D03*
X0121800Y0021800D03*
X0131800Y0021800D03*
X0141800Y0021800D03*
X0151800Y0021800D03*
X0161800Y0021800D03*
X0171800Y0021800D03*
X0181800Y0021800D03*
X0181800Y0081800D03*
X0171800Y0081800D03*
X0161800Y0081800D03*
X0151800Y0081800D03*
X0141800Y0081800D03*
X0131800Y0081800D03*
X0121800Y0081800D03*
X0111800Y0081800D03*
X0101800Y0081800D03*
X0091800Y0081800D03*
X0081800Y0081800D03*
X0071800Y0081800D03*
X0061800Y0081800D03*
X0051800Y0081800D03*
X0041800Y0081800D03*
D13*
X0121800Y0131800D03*
X0161800Y0131800D03*
X0241800Y0151800D03*
X0281800Y0151800D03*
X0356800Y0161800D03*
X0356800Y0181800D03*
X0386800Y0126800D03*
X0361800Y0096800D03*
X0341800Y0096800D03*
X0326800Y0096800D03*
X0286800Y0096800D03*
X0266800Y0081800D03*
X0291800Y0076800D03*
X0311800Y0076800D03*
X0266800Y0061800D03*
X0246800Y0066800D03*
X0246800Y0046800D03*
X0246800Y0026800D03*
X0206800Y0026800D03*
X0206800Y0046800D03*
X0206800Y0066800D03*
X0336800Y0026800D03*
X0376800Y0026800D03*
X0386800Y0086800D03*
D14*
X0374400Y0071800D02*
X0369200Y0071800D01*
X0369200Y0061800D02*
X0374400Y0061800D01*
X0374400Y0051800D02*
X0369200Y0051800D01*
X0369200Y0041800D02*
X0374400Y0041800D01*
X0344400Y0041800D02*
X0339200Y0041800D01*
X0339200Y0051800D02*
X0344400Y0051800D01*
X0344400Y0061800D02*
X0339200Y0061800D01*
X0339200Y0071800D02*
X0344400Y0071800D01*
X0311800Y0059400D02*
X0311800Y0054200D01*
X0301800Y0054200D02*
X0301800Y0059400D01*
X0291800Y0059400D02*
X0291800Y0054200D01*
X0281800Y0054200D02*
X0281800Y0059400D01*
X0281800Y0029400D02*
X0281800Y0024200D01*
X0291800Y0024200D02*
X0291800Y0029400D01*
X0301800Y0029400D02*
X0301800Y0024200D01*
X0311800Y0024200D02*
X0311800Y0029400D01*
X0219400Y0116800D02*
X0214200Y0116800D01*
X0214200Y0126800D02*
X0219400Y0126800D01*
X0219400Y0136800D02*
X0214200Y0136800D01*
X0214200Y0146800D02*
X0219400Y0146800D01*
X0219400Y0156800D02*
X0214200Y0156800D01*
X0214200Y0166800D02*
X0219400Y0166800D01*
X0219400Y0176800D02*
X0214200Y0176800D01*
X0189400Y0176800D02*
X0184200Y0176800D01*
X0184200Y0166800D02*
X0189400Y0166800D01*
X0189400Y0156800D02*
X0184200Y0156800D01*
X0184200Y0146800D02*
X0189400Y0146800D01*
X0189400Y0136800D02*
X0184200Y0136800D01*
X0184200Y0126800D02*
X0189400Y0126800D01*
X0189400Y0116800D02*
X0184200Y0116800D01*
X0074400Y0116800D02*
X0069200Y0116800D01*
X0069200Y0126800D02*
X0074400Y0126800D01*
X0074400Y0136800D02*
X0069200Y0136800D01*
X0069200Y0146800D02*
X0074400Y0146800D01*
X0074400Y0156800D02*
X0069200Y0156800D01*
X0069200Y0166800D02*
X0074400Y0166800D01*
X0074400Y0176800D02*
X0069200Y0176800D01*
X0044400Y0176800D02*
X0039200Y0176800D01*
X0039200Y0166800D02*
X0044400Y0166800D01*
X0044400Y0156800D02*
X0039200Y0156800D01*
X0039200Y0146800D02*
X0044400Y0146800D01*
X0044400Y0136800D02*
X0039200Y0136800D01*
X0039200Y0126800D02*
X0044400Y0126800D01*
X0044400Y0116800D02*
X0039200Y0116800D01*
X0299200Y0121800D02*
X0304400Y0121800D01*
X0304400Y0131800D02*
X0299200Y0131800D01*
X0299200Y0141800D02*
X0304400Y0141800D01*
X0304400Y0151800D02*
X0299200Y0151800D01*
X0299200Y0161800D02*
X0304400Y0161800D01*
X0304400Y0171800D02*
X0299200Y0171800D01*
X0299200Y0181800D02*
X0304400Y0181800D01*
X0329200Y0181800D02*
X0334400Y0181800D01*
X0334400Y0171800D02*
X0329200Y0171800D01*
X0329200Y0161800D02*
X0334400Y0161800D01*
X0334400Y0151800D02*
X0329200Y0151800D01*
X0329200Y0141800D02*
X0334400Y0141800D01*
X0334400Y0131800D02*
X0329200Y0131800D01*
X0329200Y0121800D02*
X0334400Y0121800D01*
M02*
