%
M48
M72
T01C0.03150
T02C0.03200
T03C0.07000
%
T01
X41800Y21800
X51800Y21800
X61800Y21800
X71800Y21800
X81800Y21800
X91800Y21800
X101800Y21800
X111800Y21800
X121800Y21800
X131800Y21800
X141800Y21800
X151800Y21800
X161800Y21800
X171800Y21800
X181800Y21800
X181800Y81800
X171800Y81800
X161800Y81800
X151800Y81800
X141800Y81800
X131800Y81800
X121800Y81800
X111800Y81800
X101800Y81800
X91800Y81800
X81800Y81800
X71800Y81800
X61800Y81800
X51800Y81800
X41800Y81800
T02
X41800Y116800
X41800Y126800
X41800Y136800
X41800Y146800
X41800Y156800
X41800Y166800
X41800Y176800
X71800Y176800
X71800Y166800
X71800Y156800
X71800Y146800
X71800Y136800
X71800Y126800
X71800Y116800
X121800Y131800
X161800Y131800
X186800Y126800
X186800Y116800
X216800Y116800
X216800Y126800
X216800Y136800
X216800Y146800
X216800Y156800
X216800Y166800
X216800Y176800
X186800Y176800
X186800Y166800
X186800Y156800
X186800Y146800
X186800Y136800
X241800Y151800
X281800Y151800
X301800Y151800
X301800Y141800
X301800Y131800
X301800Y121800
X331800Y121800
X331800Y131800
X331800Y141800
X331800Y151800
X331800Y161800
X331800Y171800
X331800Y181800
X356800Y181800
X356800Y161800
X301800Y161800
X301800Y171800
X301800Y181800
X386800Y126800
X361800Y96800
X341800Y96800
X326800Y96800
X286800Y96800
X266800Y81800
X291800Y76800
X311800Y76800
X341800Y71800
X341800Y61800
X341800Y51800
X341800Y41800
X336800Y26800
X311800Y26800
X301800Y26800
X291800Y26800
X281800Y26800
X246800Y26800
X246800Y46800
X266800Y61800
X281800Y56800
X291800Y56800
X301800Y56800
X311800Y56800
X371800Y51800
X371800Y41800
X376800Y26800
X371800Y61800
X371800Y71800
X386800Y86800
X246800Y66800
X206800Y66800
X206800Y46800
X206800Y26800
T03
X31800Y21800
X31800Y81800
X191800Y81800
X191800Y21800
M30
